# xmcd
#
# Track frame offsets:
#	150
#	16300
#	32957
#	54132
#	72820
#	100975
#	120805
#	140105
#	160523
#	181810
#	202610
#	223790
#	246267
#	263973
#
# Disc length: 3657 seconds
#
# Revision: 4
# Processed by: cddbd v1.5.2PL0 Copyright (c) Steve Scherf et al.
# Submitted via: EasyCDDAExtractor 10.0.3.1
#
DISCID=b80e470e
DTITLE=Various Artist - 마음에 힘이 되는 詩 노래 모음집 CD1
DYEAR=2004
DGENRE=Contemporary Folk
TTITLE0=Various Artist - 젊은 그대
TTITLE1=이광조 - 즐거운 인생
TTITLE2=수와진 - 파초
TTITLE3=신수경 - 미소를 띄우며 나를 보낸 그 모습처럼
TTITLE4=조성모 - 가시나무
TTITLE5=터보 - 회상(December)
TTITLE6=신효범 - 난 널 사랑해
TTITLE7=안재욱 - 포에버(Forever)
TTITLE8=부활 - 사랑할수록
TTITLE9=스카이 - 영원
TTITLE10=안재욱 - 친구
TTITLE11=김광석(feat, 윤도현) - 이등병의 편지
TTITLE12=정호성 시 - 희망을 만드는 사람이 되라
TTITLE13=도종환 시 - 흔들리며 피는 꽃
EXTD=
EXTT0=
EXTT1=
EXTT2=
EXTT3=
EXTT4=
EXTT5=
EXTT6=
EXTT7=
EXTT8=
EXTT9=
EXTT10=
EXTT11=
EXTT12=
EXTT13=
PLAYORDER=
